HIERARCHY
ROOT Hips
{
	OFFSET 0.00000 0.00000 0.00000
	CHANNELS 6 Xposition Yposition Zposition Yrotation Zrotation Xrotation 
	JOINT Lumbar
	{
		OFFSET 0 0 0
		CHANNELS 3 Zrotation Xrotation Yrotation
		JOINT Neck
		{
			OFFSET 0.00 0.2701 0.00
			CHANNELS 3 Zrotation Xrotation Yrotation
			End Site
			{
				OFFSET 0.00 0.1379 0.00
			}
		}
		JOINT RightShoulder
		{
			OFFSET 0.0119 0.2289 0.1181
			CHANNELS 3 Zrotation Xrotation Yrotation
			JOINT RightElbow
			{
				OFFSET 0.00 -0.1475 0.00
				CHANNELS 2 Zrotation Yrotation
				JOINT RightWrist
				{
					OFFSET 0.00 -0.1605 0.00
					CHANNELS 2 Zrotation Xrotation
					End Site
					{
						OFFSET 0.0040 -0.1068 0.0006
					}
				}
			}
		}
		JOINT LeftShoulder
		{
			OFFSET 0.0119 0.2289 -0.1181
			CHANNELS 3 Zrotation Xrotation Yrotation
			JOINT LeftElbow
			{
				OFFSET 0.00 -0.1475 0.00
				CHANNELS 2 Zrotation Yrotation
				JOINT LeftWrist
				{
					OFFSET 0.00 -0.1605 0.00
					CHANNELS 2 Zrotation Xrotation
					End Site
					{
						OFFSET 0.0040 -0.1068 -0.0006
					}
				}
			}
		}
	}
	JOINT RightHip
	{
		OFFSET 0.0316 -0.0424 0.0458
		CHANNELS 3 Zrotation Xrotation Yrotation
		JOINT RightKnee
		{
			OFFSET 0.00 -0.2438 0.00
			CHANNELS 1 Zrotation
			JOINT RightAnkle
			{
				OFFSET 0.00 -0.2449 0.00
				CHANNELS 3 Zrotation Xrotation Yrotation
				End Site
				{
					OFFSET 0.1237 -0.0542 0.0051
				}
			}
		}
	}
	JOINT LeftHip
	{
		OFFSET 0.0316 -0.0424 -0.0458
		CHANNELS 3 Zrotation Xrotation Yrotation
		JOINT LeftKnee
		{
			OFFSET 0.00 -0.2438 0.00
			CHANNELS 1 Zrotation
			JOINT LeftAnkle
			{
				OFFSET 0.00 -0.2449 0.00
				CHANNELS 3 Zrotation Xrotation Yrotation
				End Site
				{
					OFFSET 0.1237 -0.0542 -0.0051
				}
			}
		}
	}
}
MOTION
Frames: 33
Frame Time: 0.02
0.00018 7e-05 6e-05 177.62647 -46.9926 1.49067 58.13424 -0.44628 0.47686 -12.69579 0.18414 -1.4597 174.5125 -76.83531 -63.30335 13.73821 64.03262 7.12125 -0.83189 154.87607 82.05981 229.98716 5.78707 -96.21821 -11.40512 14.97907 50.21609 -3.6798 -16.4519 -19.04375 -7.16934 -3.28595 -3.84496 54.39442 4.15719 14.26907 -24.37047 -7.58463 3.18222 3.86535
0.00085 2e-05 3e-05 177.65514 -46.91489 1.46751 57.9364 -0.40286 0.59326 -12.34244 0.04826 -1.4608 168.86234 -76.8487 -65.70664 12.97868 64.8634 6.28984 -1.03392 149.15567 81.83715 201.35686 5.78675 -93.35924 -10.39284 12.65704 50.22572 -3.61164 -16.16213 -19.06148 -7.19306 -3.30764 -3.85895 54.40111 4.15212 14.09655 -24.3738 -7.6096 3.19926 3.87199
0.00152 -4e-05 -1e-05 177.68388 -46.83723 1.44441 57.73887 -0.35958 0.70937 -11.98977 -0.0872 -1.46191 163.22173 -76.86167 -68.06653 12.22149 65.69361 5.45983 -1.2335 143.45071 81.61316 172.81476 5.78726 -90.51259 -9.38289 10.34421 50.23523 -3.54365 -15.87308 -19.07918 -7.21673 -3.32929 -3.8729 54.40772 4.14698 13.92396 -24.37714 -7.63453 3.21629 3.87863
0.0022 -9e-05 -4e-05 177.71248 -46.75974 1.42133 57.54159 -0.31629 0.82543 -11.63744 -0.22266 -1.46302 157.58772 -76.87502 -70.45541 11.4642 66.52219 4.63082 -1.43448 137.7477 81.39086 144.27265 5.78697 -87.66309 -8.37351 8.02969 50.24482 -3.47569 -15.58418 -19.09685 -7.24039 -3.35092 -3.88685 54.41438 4.1419 13.75184 -24.38047 -7.65943 3.23329 3.88525
0.00287 -0.00014 -7e-05 177.74097 -46.68226 1.39819 57.34411 -0.27285 0.94173 -11.2846 -0.35855 -1.46413 151.94708 -76.88877 -72.90443 10.70484 67.35047 3.80075 -1.63895 132.02973 81.17066 115.64237 5.78583 -84.79967 -7.36235 5.70514 50.25457 -3.4076 -15.29464 -19.11456 -7.26406 -3.37257 -3.90082 54.42112 4.13696 13.58011 -24.38379 -7.68433 3.25028 3.89186
0.00354 -0.00019 -0.0001 177.77022 -46.60423 1.37516 57.14647 -0.22991 1.05744 -10.93231 -0.49308 -1.46524 146.30693 -76.90002 -75.07899 9.95239 68.1846 2.97086 -1.82843 126.35228 80.93871 87.28728 5.78998 -81.98826 -6.35514 3.41703 50.26357 -3.33981 -15.00665 -19.13223 -7.28773 -3.3942 -3.91474 54.42747 4.1314 13.40582 -24.38718 -7.70935 3.26737 3.89855
0.00421 -0.00025 -0.00014 177.79789 -46.5274 1.35195 56.94938 -0.18602 1.17422 -10.57929 -0.6302 -1.46634 140.67225 -76.91671 -77.79399 9.18621 69.00637 2.14179 -2.04689 120.60073 80.73066 58.41129 5.7827 -79.07622 -5.34046 1.05846 50.27407 -3.27149 -14.71582 -19.14994 -7.3114 -3.41587 -3.92874 54.43462 4.12703 13.2366 -24.39041 -7.73411 3.28427 3.90508
0.00488 -0.0003 -0.00017 177.82707 -46.44945 1.32891 56.75176 -0.14301 1.29002 -10.22699 -0.76493 -1.46746 135.03207 -76.9276 -80.02783 8.43392 69.83891 1.3115 -2.24044 114.91537 80.50055 30.01276 5.7874 -76.25532 -4.33384 -1.23579 50.28317 -3.20367 -14.42769 -19.16763 -7.33506 -3.43749 -3.94267 54.441 4.12167 13.06319 -24.39379 -7.75908 3.3013 3.91173
0.00555 -0.00035 -0.0002 177.8579 -46.37015 1.30604 56.55348 -0.10102 1.40464 -9.87515 -0.89681 -1.46855 129.38318 -76.93447 -81.59968 7.69339 70.68782 0.48097 -2.39609 109.31663 80.24309 2.19741 5.8012 -73.55184 -3.33185 -3.4494 50.29062 -3.13634 -14.14238 -19.18526 -7.35876 -3.45911 -3.95654 54.44656 4.11466 12.88255 -24.39735 -7.78446 3.31866 3.91864
0.00622 -0.00041 -0.00024 177.87865 -46.29867 1.28207 56.35892 -0.05301 1.52613 -9.51938 -1.04531 -1.46965 123.77814 -76.97368 -86.75774 6.86949 71.45224 -0.34446 -2.74736 103.23645 80.14179 -28.97554 5.74597 -70.19084 -2.28749 -6.12092 50.30773 -3.06584 -13.8394 -19.20314 -7.3824 -3.48089 -3.97083 54.45717 4.11581 12.73715 -24.39989 -7.80794 3.33467 3.92442
0.0069 -0.00046 -0.00027 177.92104 -46.21066 1.2605 56.15663 -0.01778 1.63305 -9.17278 -1.15859 -1.47083 118.08588 -76.9388 -84.49566 6.23157 72.38846 -1.18281 -2.70046 98.16186 79.71204 -53.06104 5.84692 -68.20533 -1.34273 -7.83027 50.30437 -3.00225 -13.57465 -19.22055 -7.40603 -3.50223 -3.98417 54.45694 4.10063 12.52154 -24.40458 -7.8351 3.35316 3.93235
0.00761 -0.00049 -0.00028 178.02019 -46.07726 1.24492 55.93186 -0.01719 1.70021 -8.8438 -1.17549 -1.47158 112.10071 -76.74436 -60.4594 6.02859 73.8558 -2.03966 -1.42795 95.95143 78.36108 -57.53304 6.29612 -70.12851 -0.59001 -6.84263 50.24511 -2.95601 -13.40775 -19.23608 -7.43069 -3.52326 -3.99536 54.4285 4.03291 12.07645 -24.41523 -7.87523 3.38154 3.94814
0.00832 -0.00051 -0.00028 178.14144 -45.92744 1.23179 55.69959 -0.02943 1.75271 -8.52522 -1.15703 -1.47253 106.03568 -76.46589 -29.23468 6.02802 75.4854 -2.9125 0.22121 94.72885 76.6828 -54.91274 6.91811 -73.40777 0.04733 -4.90059 50.16535 -2.91698 -13.2804 -19.25122 -7.45512 -3.54365 -4.00548 54.38904 3.95024 11.56717 -24.42801 -7.91852 3.41179 3.96571
0.00903 -0.00054 -0.00029 178.25443 -45.78496 1.21807 55.47151 -0.03615 1.81177 -8.20706 -1.15455 -1.47385 100.04474 -76.19924 -2.22052 5.98192 77.00079 -3.78924 1.60924 92.98882 75.16877 -55.65386 7.51212 -75.97912 0.68487 -3.43071 50.09462 -2.87574 -13.13971 -19.26691 -7.47898 -3.56383 -4.01584 54.35345 3.87942 11.11197 -24.43986 -7.95846 3.43923 3.98119
0.00975 -0.00057 -0.0003 178.36042 -45.64229 1.20251 55.23995 -0.04187 1.87119 -7.86804 -1.15221 -1.4733 93.90261 -76.04998 28.79599 5.73317 78.68411 -4.61938 3.37165 91.54991 73.59342 -55.82274 7.88871 -78.94101 1.54408 -1.7915 50.02459 -2.83012 -12.98006 -19.28107 -7.50576 -3.58631 -4.02739 54.32207 3.78715 10.55364 -24.45174 -8.00647 3.47514 4.00213
0.01046 -0.0006 -0.00031 178.48565 -45.49694 1.19089 55.0141 -0.05237 1.92645 -7.57387 -1.14139 -1.47659 88.04574 -75.62845 53.17538 5.96316 80.06016 -5.54972 4.45128 89.70556 72.0622 -55.46996 8.76461 -81.40969 1.9125 -0.28526 49.94884 -2.79517 -12.86863 -19.29827 -7.52632 -3.60361 -4.03602 54.28 3.73612 10.19219 -24.46382 -8.03846 3.49363 4.01207
0.01119 -0.00063 -0.00032 178.66345 -45.34159 1.19365 54.80363 -0.07583 1.97318 -7.41038 -1.1142 -1.49119 83.09208 -74.54083 57.48074 7.38961 80.50997 -6.75452 3.48567 86.60408 70.78309 -55.71855 10.92679 -82.18972 0.97339 0.67412 49.85755 -2.78932 -12.88606 -19.32446 -7.53058 -3.60895 -4.03831 54.20546 3.80147 10.4139 -24.47786 -8.02497 3.46556 3.99155
0.01191 -0.00065 -0.00032 178.85903 -45.18543 1.19963 54.59945 -0.1032 2.01631 -7.29007 -1.07997 -1.50953 78.41289 -73.16864 54.85785 9.30388 80.65011 -8.05643 1.83263 83.04209 69.54873 -55.63441 13.59267 -82.42539 -0.45595 1.45772 49.76229 -2.79369 -12.94958 -19.35367 -7.52847 -3.60873 -4.03745 54.12174 3.9089 10.83169 -24.49173 -7.99534 3.4196 3.95987
0.01264 -0.00068 -0.00033 179.04316 -45.03386 1.20127 54.39397 -0.12676 2.06155 -7.14364 -1.05008 -1.52563 73.54193 -71.88572 55.39131 11.04595 80.95933 -9.31644 0.53834 79.62051 68.26322 -55.501 16.06354 -82.9062 -1.67784 2.28439 49.67178 -2.79244 -12.98849 -19.38112 -7.52871 -3.60955 -4.037 54.04573 3.99796 11.14393 -24.5043 -7.97334 3.38042 3.93301
0.01337 -0.00071 -0.00034 179.24191 -44.86352 1.21468 54.18212 -0.15897 2.10446 -7.02437 -1.01428 -1.5439 68.94082 -70.77442 56.1265 12.59062 81.16227 -10.57935 -0.93923 76.51847 67.10328 -55.95661 18.40618 -83.44295 -2.85267 3.29417 49.56744 -2.79554 -13.04444 -19.41004 -7.53112 -3.61643 -4.04065 53.95378 4.08386 11.52269 -24.52245 -7.9501 3.34669 3.90712
0.01408 -0.00073 -0.00035 179.41462 -44.73277 1.20491 53.98453 -0.17442 2.15135 -6.85944 -0.98939 -1.55866 63.85685 -69.23234 54.72336 14.65402 81.50122 -11.84432 -2.20223 72.63584 65.68799 -55.21091 21.12217 -83.7174 -4.22328 3.87546 49.49209 -2.79195 -13.07509 -19.43681 -7.52766 -3.60963 -4.03526 53.89376 4.18588 11.81112 -24.52929 -7.92571 3.29774 3.87671
0.01475 -0.00071 -0.0004 179.50654 -44.70754 1.12511 53.8297 -0.13836 2.21199 -6.55143 -0.99827 -1.56169 57.26407 -66.63072 48.89358 18.07392 82.37527 -13.21949 -2.71494 66.64483 63.63487 -51.16151 24.838 -83.38381 -6.16392 3.24975 49.49071 -2.76705 -13.02669 -19.45525 -7.50826 -3.56412 -4.00361 53.91764 4.32794 11.79542 -24.50182 -7.90085 3.20768 3.83509
0.01541 -0.00068 -0.00046 179.57221 -44.723 1.02284 53.68784 -0.08602 2.2766 -6.19729 -1.01821 -1.56125 50.19834 -63.59607 41.15606 21.98667 83.38148 -14.5708 -2.9881 59.89276 61.31193 -45.96507 28.89239 -82.80146 -8.25819 2.20583 49.52009 -2.73515 -12.95086 -19.47177 -7.48342 -3.50545 -3.96334 53.97522 4.48377 11.68363 -24.46356 -7.87562 3.10357 3.78957
0.01607 -0.00066 -0.00052 179.65295 -44.72254 0.93429 53.53721 -0.04386 2.33808 -5.86829 -1.032 -1.56314 43.41827 -60.71854 34.39689 25.64833 84.27009 -15.84695 -3.36576 53.52543 59.06075 -41.37163 32.73262 -82.33708 -10.18105 1.39321 49.54011 -2.70656 -12.88574 -19.49022 -7.46194 -3.45436 -3.92839 54.02172 4.62958 11.62061 -24.43229 -7.85135 3.00812 3.74676
0.01673 -0.00062 -0.00058 179.72172 -44.7112 0.83106 53.4001 0.00987 2.40453 -5.52263 -1.05026 -1.56203 36.34164 -57.99217 26.92696 29.45476 85.38662 -17.48357 -3.78486 46.97304 57.0188 -36.40875 36.85209 -81.83331 -12.54182 0.40377 49.54043 -2.67756 -12.82879 -19.50417 -7.43654 -3.39643 -3.88748 54.05012 4.79274 11.54287 -24.39219 -7.82316 2.9024 3.6996
0.01739 -0.00061 -0.00063 179.80812 -44.73219 0.75301 53.23635 0.04346 2.46226 -5.20082 -1.06196 -1.56626 29.77623 -54.8598 20.57812 33.05379 86.06921 -18.37001 -4.05277 40.63815 54.48503 -31.95855 40.45501 -81.36003 -14.03081 -0.31806 49.58922 -2.64791 -12.74881 -19.52716 -7.41804 -3.34957 -3.85687 54.12423 4.9225 11.47037 -24.36793 -7.80327 2.81501 3.66075
0.01803 -0.00067 -0.00066 179.95668 -44.83292 0.75006 53.0082 0.01718 2.48949 -4.95068 -1.05266 -1.58636 24.65694 -50.64709 17.77437 36.09972 85.47552 -17.12568 -3.95077 35.03264 50.58572 -29.12366 42.62055 -81.02634 -12.98416 -0.16854 49.76445 -2.61566 -12.60312 -19.57446 -7.42054 -3.33741 -3.85785 54.31808 4.95635 11.43575 -24.39016 -7.80645 2.78131 3.64555
0.01868 -0.00075 -0.00068 180.12246 -44.96496 0.77311 52.75027 -0.02979 2.50883 -4.72733 -1.03646 -1.61187 20.08235 -46.05568 16.20013 38.89231 84.45031 -15.13941 -3.70342 29.68591 46.21467 -26.8586 44.23867 -80.73491 -11.06953 0.25995 49.98787 -2.5835 -12.43733 -19.63125 -7.43011 -3.33664 -3.86929 54.55695 4.95606 11.40902 -24.42872 -7.8181 2.76666 3.63893
0.01933 -0.00083 -0.0007 180.27566 -45.08207 0.78432 52.49806 -0.06718 2.53542 -4.49455 -1.02361 -1.63471 15.31019 -41.68021 14.11099 41.70512 83.65459 -13.53439 -3.52659 24.25972 42.10713 -24.39244 46.05764 -80.43105 -9.60904 0.54173 50.18855 -2.5528 -12.2854 -19.68428 -7.43612 -3.33018 -3.87533 54.77351 4.97124 11.37737 -24.45974 -7.8259 2.74366 3.62862
0.01995 -0.0009 -0.00071 180.44814 -45.20252 0.79522 52.28003 -0.10505 2.54677 -4.24695 -1.01026 -1.65836 10.31037 -37.09897 11.77356 44.93184 82.72367 -11.74038 -3.32347 18.64283 37.78131 -21.65519 48.09077 -80.09203 -7.90141 0.89275 50.39186 -2.51521 -12.10969 -19.73438 -7.44343 -3.32569 -3.88392 54.99714 4.98669 11.34695 -24.49082 -7.83357 2.71899 3.61736
0.02064 -0.00097 -0.00075 180.58474 -45.32426 0.81274 51.98263 -0.14667 2.58781 -4.03926 -0.99612 -1.68163 5.92065 -32.86885 10.26121 47.23519 81.96851 -10.16683 -3.14304 13.49809 33.80349 -19.61594 49.54377 -79.83652 -6.50142 1.17154 50.60322 -2.49249 -11.98274 -19.79353 -7.44974 -3.31965 -3.88967 55.2187 4.99385 11.31852 -24.52586 -7.84366 2.70233 3.61008
0.02143 -0.00105 -0.00088 180.61951 -45.43051 0.84672 51.48103 -0.19697 2.71352 -3.91692 -0.98202 -1.70286 3.08283 -29.64701 10.83168 47.00056 81.81812 -9.36038 -3.06576 9.57091 30.88904 -19.51858 49.52083 -79.82953 -6.15224 1.18247 50.80448 -2.50705 -11.96247 -19.86997 -7.452 -3.3095 -3.8863 55.40333 4.98135 11.28149 -24.56723 -7.85726 2.70482 3.61252
0.02231 -0.00112 -0.00104 180.61756 -45.53914 0.88584 50.89895 -0.24983 2.86894 -3.83708 -0.96736 -1.7235 0.84337 -26.80485 12.18164 45.85231 81.85598 -8.80591 -3.01648 6.11965 28.346 -20.08231 48.93187 -79.90118 -6.14361 1.11318 51.01635 -2.53721 -11.99703 -19.95637 -7.45304 -3.29705 -3.8796 55.58823 4.96248 11.24895 -24.61216 -7.8732 2.71447 3.61854
